<?xml version="1.0" encoding="UTF-8"?>
<svg version="1.1" xmlns="http://www.w3.org/2000/svg" width="484" height="525">
<path d="M0 0 C1.61662257 3.5679679 2.25574656 6.36369345 2.265625 10.2734375 C2.26820313 11.2634375 2.27078125 12.2534375 2.2734375 13.2734375 C2.26570312 14.29695313 2.25796875 15.32046875 2.25 16.375 C2.25773438 17.39078125 2.26546875 18.4065625 2.2734375 19.453125 C2.25895766 25.02786332 1.8679545 29.73711231 0 35 C0.53367188 34.71125 1.06734375 34.4225 1.6171875 34.125 C7.59652755 31.14567485 12.36678275 30.5014701 19 31 C19.84088613 33.69083563 20.26670603 35.24926722 20 38 C16.41398387 44.25968893 9.94215761 48.66576682 4.35546875 53.01953125 C1.82455622 54.95996414 1.82455622 54.95996414 0 58 C1.98036486 57.02325896 3.95926133 56.04354018 5.9375 55.0625 C7.59072266 54.24458984 7.59072266 54.24458984 9.27734375 53.41015625 C11.84794414 52.25295022 11.84794414 52.25295022 13 51 C15.5 50.875 15.5 50.875 18 51 C19.54929074 52.54929074 19.39320863 54.03713945 19.5625 56.1875 C19.53913859 59.1497264 19.49780235 60.47872806 17.42578125 62.6484375 C16.02990576 63.61092688 14.61318672 64.54371658 13.1796875 65.44921875 C9.63477658 67.97131487 7.39874708 71.4200517 5 75 C5.72445312 74.65066406 6.44890625 74.30132812 7.1953125 73.94140625 C17.03470804 69.31033075 17.03470804 69.31033075 22 69 C22.84433594 68.91492188 23.68867188 68.82984375 24.55859375 68.7421875 C29.63759075 68.4251809 33.08312158 68.44149334 37.125 71.75 C39.52214604 74.02098046 40.42069521 75.75024143 41 79 C40.030625 79.18433594 39.06125 79.36867188 38.0625 79.55859375 C30.10674112 81.2245903 23.16158875 83.55021822 16.0625 87.5625 C15.37091797 87.95042725 14.67933594 88.33835449 13.96679688 88.73803711 C9.98928537 91.00201147 9.98928537 91.00201147 8 95 C8.70125 94.690625 9.4025 94.38125 10.125 94.0625 C17.90780326 91.18624662 28.23234793 90.54771019 36 94 C37.6875 96.875 37.6875 96.875 38 100 C37.37890625 102.06640625 37.37890625 102.06640625 36 104 C33.453125 105.16015625 33.453125 105.16015625 30.25 106.0625 C29.09113281 106.39121094 27.93226563 106.71992187 26.73828125 107.05859375 C21.85247772 108.28897896 16.94278193 109.33453697 11.99609375 110.2890625 C9.35973652 110.91463879 7.33739177 111.66271473 5 113 C7.71084686 114.35542343 9.03759192 113.59982643 12 113 C14.45633814 112.88290184 16.91590392 112.82497006 19.375 112.8125 C21.27378906 112.79123047 21.27378906 112.79123047 23.2109375 112.76953125 C28.41464876 113.08604565 32.56758054 113.71082248 36.5 117.25 C38 120 38 120 38.0625 123.1875 C37 126 37 126 35.0625 127.25 C32 128 32 128 29.65625 128.37890625 C23.61867533 129.38819961 20.26549881 130.51575766 16 135 C15.67 135.99 15.34 136.98 15 138 C15.53367187 137.65066406 16.06734375 137.30132812 16.6171875 136.94140625 C24.87049902 131.90088901 32.38495848 131.01546131 41.80078125 133.203125 C45.11497409 134.40400482 46.88919305 136.22956588 49 139 C49.28875 139.721875 49.5775 140.44375 49.875 141.1875 C51.00090534 143.42708237 51.00090534 143.42708237 54.625 144.25 C56.295625 144.62125 56.295625 144.62125 58 145 C57.92849639 148.0031515 57.60896861 150.22104322 55.7265625 152.62890625 C52.59724318 155.55988843 49.84685742 157.22095482 45.6875 158.25 C40.24373006 159.64239724 35.6287668 162.16090572 30.75 164.875 C29.98131592 165.29813477 29.21263184 165.72126953 28.4206543 166.15722656 C19.18320081 171.24120288 19.18320081 171.24120288 14 180 C17.71017348 177.91302741 21.32669284 175.78878788 24.875 173.4375 C30.34068596 170.02276777 35.43322427 167.87777258 41.9375 168.1875 C45 169 45 169 47 171 C49.89305453 170.5867065 52.66430965 169.83392259 55.5 169.125 C56.655 169.08375 57.81 169.0425 59 169 C59.70125 169.78375 60.4025 170.5675 61.125 171.375 C65.14131453 175.04206979 68.55370577 174.68633617 73.84375 174.859375 C76.68147328 174.98580822 79.2391028 175.36128498 82 176 C82.33 175.34 82.66 174.68 83 174 C81.94039063 173.5978125 81.94039063 173.5978125 80.859375 173.1875 C77.88306485 171.95143677 75.09795712 170.50685562 72.25 169 C67.15255482 166.4134251 62.62334275 164.93722379 57 164 C57.58887435 161.01804051 57.95184469 160.05098798 60.125 157.75 C63.68286813 155.58434114 66.00884595 155.28256742 70 156 C80.70332481 158.8516624 80.70332481 158.8516624 85 161 C81.70927343 156.2391894 79.08171523 152.90383727 74 150 C73.0625 148.125 73.0625 148.125 73 146 C73.63519686 144.3210875 74.29915167 142.65258399 75 141 C76.01320313 141.52400391 76.01320313 141.52400391 77.046875 142.05859375 C77.93890625 142.51363281 78.8309375 142.96867188 79.75 143.4375 C81.07257813 144.11619141 81.07257813 144.11619141 82.421875 144.80859375 C84.64198566 145.83455398 86.61444619 146.51508603 89 147 C87.85481752 145.85481752 86.70931031 144.70995858 85.5625 143.56640625 C84.45319134 142.45432432 83.34959619 141.33653005 82.25 140.21484375 C78.64055492 136.51923229 78.64055492 136.51923229 74.5625 133.375 C73 132 73 132 72.625 129.4375 C73 127 73 127 75 125 C77.0234375 125.20703125 77.0234375 125.20703125 79.375 125.8125 C80.14585937 126.00457031 80.91671875 126.19664062 81.7109375 126.39453125 C82.84402344 126.69423828 82.84402344 126.69423828 84 127 C85.33302906 127.33454808 86.66631671 127.66806962 88 128 C87.9388501 127.09290283 87.9388501 127.09290283 87.87646484 126.16748047 C87.69709778 123.40395778 87.53590593 120.63965652 87.375 117.875 C87.31054688 116.92367187 87.24609375 115.97234375 87.1796875 114.9921875 C86.89405523 109.85080672 86.87333783 105.82151653 89 101 C90.9375 101.375 90.9375 101.375 93 102 C94.11769514 104.23539029 94.30098609 105.88755006 94.578125 108.3671875 C95.95766522 119.78810838 97.45276936 129.70930955 103.64453125 139.63671875 C105.18937851 142.33018443 105.26172739 143.94651382 105 147 C104.67 146.34 104.34 145.68 104 145 C103.2575 144.71125 102.515 144.4225 101.75 144.125 C98.66221961 142.86181712 96.52111915 141.16095927 94 139 C94.495 139.78375 94.99 140.5675 95.5 141.375 C97 144 97 144 97 146 C97.66 146 98.32 146 99 146 C100.54962215 147.81720396 102.01580263 149.70605872 103.4375 151.625 C104.21996094 152.66914063 105.00242187 153.71328125 105.80859375 154.7890625 C108.89745782 159.31499168 111 162.45058184 111 168 C109.35 168.33 107.7 168.66 106 169 C106.18129815 172.43793339 106.18129815 172.43793339 107 176 C108.82655241 177.11428057 108.82655241 177.11428057 111 178 C115.68756617 181.17785301 120.39967962 184.61210954 124 189 C124.3125 191.8125 124.3125 191.8125 124 194 C123.29488281 193.70351562 122.58976562 193.40703125 121.86328125 193.1015625 C118.99677739 191.9987602 116.15507468 191.16158606 113.1875 190.375 C112.21167969 190.11460937 111.23585938 189.85421875 110.23046875 189.5859375 C109.49441406 189.39257812 108.75835937 189.19921875 108 189 C109.47342491 192.74904784 111.40423763 194.21546247 114.75 196.375 C119.04575181 199.28864036 122.68563109 201.98786922 126 206 C126.375 208.875 126.375 208.875 126 211 C119.64045908 211.31276431 114.68185929 210.49066249 108.59765625 208.66796875 C105.25098392 207.80739586 102.43176732 207.77121551 99 208 C100.44857101 211.69662656 102.11330374 212.93946228 105.5625 214.8125 C110.77037423 217.78520277 115.34679058 221.23487826 120 225 C120.9075 225.680625 121.815 226.36125 122.75 227.0625 C126.97593951 230.70150346 130.48629058 234.17795988 131 240 C130.01 240.33 129.02 240.66 128 241 C125.37109375 239.56640625 125.37109375 239.56640625 122.4375 237.5625 C119.00361937 234.92091622 119.00361937 234.92091622 115 234 C116.05252013 238.70578353 117.53120861 240.8882129 121.55273438 243.58007812 C122.13345703 243.94552734 122.71417969 244.31097656 123.3125 244.6875 C123.88162109 245.06455078 124.45074219 245.44160156 125.03710938 245.83007812 C127.57278602 247.49820983 130.1402936 249.08042182 132.7734375 250.58984375 C135.87903472 252.55672199 137.26640289 254.78963497 139 258 C139.25 260.875 139.25 260.875 139 263 C135.81239794 263 134.48393531 262.45494872 131.65625 261.1015625 C130.82222656 260.70453125 129.98820312 260.3075 129.12890625 259.8984375 C127.82759766 259.26808594 127.82759766 259.26808594 126.5 258.625 C125.63246094 258.2125 124.76492188 257.8 123.87109375 257.375 C120.42256614 255.72269156 117.18797487 254.12531658 114 252 C112.68 252 111.36 252 110 252 C114.79463977 255.42130074 119.61724197 258.76733736 124.56640625 261.9609375 C125.76837646 262.74259277 125.76837646 262.74259277 126.99462891 263.54003906 C128.60455726 264.58457782 130.22003434 265.62062098 131.84130859 266.64746094 C135.91103102 269.2990128 139.05149633 271.36551118 141 276 C141.40677966 281.18644068 141.40677966 281.18644068 140 284 C137.69810713 283.43559358 135.41080714 282.83829218 133.125 282.2109375 C132.09375 281.93507813 131.0625 281.65921875 130 281.375 C128.453125 280.95347656 128.453125 280.95347656 126.875 280.5234375 C123.79643115 279.75878566 123.79643115 279.75878566 120 281 C120 283.97 120 286.94 120 290 C117.69 289.67 115.38 289.34 113 289 C113.85582585 293.18998072 114.50591085 294.66957788 118.125 297.08984375 C119.40826617 297.72304637 120.7005613 298.33818649 122 298.9375 C123.36832802 299.61750273 124.73421801 300.30243288 126.09765625 300.9921875 C127.09949951 301.49637207 127.09949951 301.49637207 128.12158203 302.01074219 C135.49220554 305.89243786 141.93586546 311.34200842 148 317 C148.56460937 317.48597656 149.12921875 317.97195313 149.7109375 318.47265625 C151.86634509 321.02648767 151.18050105 323.81114812 151 327 C145.25 325.125 145.25 325.125 143 324 C141.27034091 324.00573685 139.54068969 324.0534887 137.8125 324.125 C134.18786781 324.17231896 131.46837176 324.07422995 128.1875 322.5 C124.80754642 320.90943361 122.68172492 320.73060549 119 321 C119.11341534 323.40877257 119.11341534 323.40877257 120 326 C122.21692394 327.66457328 122.21692394 327.66457328 125 329 C125.9075 329.61875 126.815 330.2375 127.75 330.875 C130.23390201 332.49908977 132.63407626 333.87756114 135.25 335.25 C144.81405577 340.57232446 152.00263457 346.53535228 156 357 C156 358.32 156 359.64 156 361 C151.63639296 358.94169479 147.697445 356.27636544 143.65625 353.65625 C139.34667473 350.96910307 136.06802427 349.69109422 131 349 C132.01304224 352.82704845 133.52412924 354.57778173 136.5625 356.9375 C139.38142832 359.18913362 139.92477355 359.72918477 140.9375 363.375 C140.9684375 364.674375 140.9684375 364.674375 141 366 C138 366 138 366 135.875 364.25 C132.20295961 361.37622926 128.29162546 359.75778995 124 358 C125.78005704 361.59487282 125.78005704 361.59487282 128.875 363.9375 C133.47037962 366.23518981 135.8286561 370.44117492 137.75 375 C139.80034109 379.43818688 142.8768621 381.10813551 146.96484375 383.57421875 C149.78698453 385.55134233 150.60535241 387.89373945 152 391 C153.17326945 392.22215568 154.38530215 393.40778144 155.625 394.5625 C158.43731938 397.22680257 159.87752752 398.95840809 160 403 C156.83321763 401.8564397 153.91365978 400.45181332 150.96875 398.8359375 C149.87626953 398.23652344 149.87626953 398.23652344 148.76171875 397.625 C147.25058689 396.78983214 145.7427655 395.9486469 144.23828125 395.1015625 C138.95733866 392.18545287 138.95733866 392.18545287 133 392 C133 393.32 133 394.64 133 396 C133.71027344 396.25136719 134.42054688 396.50273437 135.15234375 396.76171875 C138.2911129 398.12658819 140.79607519 399.8002049 143.5625 401.8125 C144.49191406 402.47894531 145.42132813 403.14539063 146.37890625 403.83203125 C152.69036362 409.0523872 152.69036362 409.0523872 153.390625 413.45703125 C153.34421875 414.23433594 153.2978125 415.01164062 153.25 415.8125 C153.21390625 416.60269531 153.1778125 417.39289063 153.140625 418.20703125 C153.09421875 418.79871094 153.0478125 419.39039063 153 420 C151.35 420 149.7 420 148 420 C151.39480697 423.97264645 154.80314312 427.86651444 158.5625 431.5 C162.0962774 435.0097381 165.59130991 438.60551961 168 443 C167.875 446 167.875 446 167 448 C163.25845254 447.66986346 162.07016119 447.06852953 159.3125 444.375 C157.24836384 442.49802645 156.40431302 442.00585019 153.5703125 441.96484375 C151.82066592 442.19588017 150.07417597 442.4522886 148.33203125 442.734375 C145.39526937 443.06888054 143.6118929 442.30594645 141 441 C139.68 441 138.36 441 137 441 C136.88162399 443.82933033 136.88162399 443.82933033 138 447 C140.3815301 449.12382156 143.08909109 450.58911631 145.875 452.125 C154.77242368 457.17573435 154.77242368 457.17573435 157 461 C157.350625 461.59941406 157.70125 462.19882812 158.0625 462.81640625 C158.5265625 463.68072266 158.5265625 463.68072266 159 464.5625 C160.68122434 467.88951984 160.68122434 467.88951984 162.6875 469.4375 C164.97909659 472.16559118 165 475.56867013 165 479 C164.3125 481.9375 164.3125 481.9375 163 484 C161.265625 484.8125 161.265625 484.8125 159 485 C156.30859375 483.78515625 156.30859375 483.78515625 153.4375 482.0625 C149.49094934 479.58694312 149.49094934 479.58694312 145 479 C144.53987899 482.9282831 144.64261943 484.52552315 147.0625 487.73828125 C148.031875 488.58777344 149.00125 489.43726563 150 490.3125 C151.3921875 491.60607422 151.3921875 491.60607422 152.8125 492.92578125 C158.6169158 496.13737149 158.6169158 496.13737149 173 496 C173 356.74 173 217.48 173 74 C134.06 74 95.12 74 55 74 C55 69.71 55 65.42 55 61 C71.93262254 60.97688139 88.86523881 60.95902097 105.7978735 60.94818783 C113.65944391 60.94302481 121.52100435 60.93598199 129.38256836 60.92456055 C136.23225475 60.9146139 143.08193392 60.90814662 149.93162733 60.90591151 C153.56069396 60.90460437 157.18973994 60.90151831 160.81879997 60.89426994 C164.86350304 60.88625644 168.90816989 60.88600885 172.95288086 60.88647461 C174.16488159 60.88287933 175.37688232 60.87928406 176.62561035 60.87557983 C178.26843239 60.87764183 178.26843239 60.87764183 179.94444275 60.87974548 C180.90218566 60.87882369 181.85992857 60.8779019 182.84669399 60.87695217 C185 61 185 61 186 62 C186.09874478 64.37751647 186.13179101 66.72597367 186.12304783 69.10401249 C186.12420167 69.85986937 186.12535552 70.61572625 186.12654433 71.39448789 C186.12921811 73.9597144 186.12468262 76.52487974 186.12025452 79.09010315 C186.12069006 80.93475212 186.12156466 82.77940103 186.12284368 84.6240496 C186.1250919 89.71830157 186.12106292 94.81253272 186.11606562 99.90678203 C186.11176596 105.3907966 186.1132072 110.8748099 186.1139679 116.35882568 C186.11449344 125.86865583 186.11134347 135.37847914 186.10573006 144.88830757 C186.09761916 158.63809514 186.09500026 172.38787938 186.09374207 186.13766908 C186.0915509 208.44326227 186.08489762 230.74885227 186.07543945 253.05444336 C186.06625975 274.7282713 186.05919073 296.40209825 186.05493164 318.07592773 C186.054661 319.43810536 186.05439029 320.80028299 186.05411953 322.16246063 C186.05203405 332.7083179 186.05008326 343.25417519 186.04816496 353.8000325 C186.03872329 405.53335834 186.01860688 457.26667507 186 509 C63.24 509 -59.52 509 -186 509 C-186 361.16 -186 213.32 -186 61 C-140.46 61 -94.92 61 -48 61 C-48 65.29 -48 69.58 -48 74 C-89.58 74 -131.16 74 -174 74 C-174 213.26 -174 352.52 -174 496 C-171.36 496 -168.72 496 -166 496 C-165.67 492.7 -165.34 489.4 -165 486 C-164.01 485.67 -163.02 485.34 -162 485 C-161.72027344 484.23042969 -161.44054687 483.46085937 -161.15234375 482.66796875 C-159.63874073 479.16359295 -157.81695441 478.23578315 -154.5625 476.3125 C-153.59441406 475.73113281 -152.62632812 475.14976562 -151.62890625 474.55078125 C-150.76136719 474.03902344 -149.89382812 473.52726562 -149 473 C-145.87525373 471.36526484 -145.87525373 471.36526484 -145.3125 468.875 C-145.209375 468.25625 -145.10625 467.6375 -145 467 C-154.12801293 469.67545207 -163.06862335 473.71241557 -171 479 C-171.33 478.34 -171.66 477.68 -172 477 C-170.09078448 473.06926216 -167.33903528 470.00133316 -164.46484375 466.76171875 C-162.80813285 464.86040775 -162.80813285 464.86040775 -161.125 461.875 C-159.03342993 459.04522873 -157.97499431 458.29575338 -155 456.6875 C-150.72309853 454.24808213 -149.56414954 451.58130861 -147.85546875 447.08203125 C-146.27016398 443.22373242 -143.78803685 441.44774821 -140.25 439.4375 C-139.5075 438.963125 -138.765 438.48875 -138 438 C-138 437.01 -138 436.02 -138 435 C-139.60781893 435.7631861 -141.21113138 436.53587058 -142.8125 437.3125 C-143.70582031 437.74175781 -144.59914062 438.17101562 -145.51953125 438.61328125 C-147.80285976 439.88978774 -149.19764854 441.1543488 -151 443 C-151.66 443 -152.32 443 -153 443 C-152.87834379 436.91718946 -152.87834379 436.91718946 -150.41015625 434.33984375 C-149.16498417 433.34421536 -147.89304509 432.38091526 -146.59375 431.45703125 C-144.69218523 429.71859091 -144.3865313 428.50708498 -144 426 C-152.08517194 425.5185712 -158.32679444 431.0156311 -164.37109375 435.86328125 C-166 437 -166 437 -168 437 C-166.9477685 428.58214803 -162.78441551 423.19248897 -156.41796875 417.875 C-150.07387486 412.95550878 -143.39353965 409.01602918 -136.28515625 405.296875 C-133.89967336 404.07698181 -133.89967336 404.07698181 -132 402 C-132.32041397 399.39719432 -132.32041397 399.39719432 -133 397 C-133.65226562 397.20496094 -134.30453125 397.40992188 -134.9765625 397.62109375 C-140.37491586 399.28518793 -145.54551586 400.67305775 -151.1875 401.20703125 C-155.46426697 401.62204647 -159.07387964 402.10026434 -163 404 C-163.49081007 397.74217155 -163.49081007 397.74217155 -161.390625 394.56640625 C-158.68330025 391.6600135 -155.74718398 389.37771161 -152.5 387.125 C-151.58057617 386.47917969 -151.58057617 386.47917969 -150.64257812 385.8203125 C-136.6375289 376.10783254 -136.6375289 376.10783254 -129.7421875 374.0078125 C-128.38480469 373.50894531 -128.38480469 373.50894531 -127 373 C-125.54839062 369.98220128 -125.54839062 369.98220128 -125 367 C-127.31 367.33 -129.62 367.66 -132 368 C-133.16148326 364.51555023 -132.61892003 362.55879018 -132 359 C-132.33 358.67 -132.66 358.34 -133 358 C-139.69319802 358.42496495 -145.64857872 359.89169941 -152 362 C-153.53214888 358.93570224 -153.22938548 356.3834358 -153 353 C-150.77768895 347.80063075 -146.99750861 345.79127826 -142.3125 343.0625 C-140.86555252 342.19151247 -139.42021975 341.31783652 -137.9765625 340.44140625 C-136.94257324 339.81516357 -136.94257324 339.81516357 -135.88769531 339.17626953 C-132.94641892 337.34348763 -130.20110664 335.2978963 -127.48046875 333.15625 C-126.0406916 332.03178025 -124.52003326 331.0133555 -123 330 C-127.41172531 330.62195376 -130.81096445 332.26857822 -134.75 334.3125 C-140.09796182 337.05690443 -145.47949887 339.62047365 -151 342 C-151.56621496 337.35703734 -150.69553675 334.51002175 -147.8203125 330.796875 C-143.59970595 326.63061102 -138.19811707 323.75074788 -133.0234375 320.91796875 C-129.69024655 318.98865872 -128.99152182 317.9768777 -127.625 314.25 C-127.41875 313.1775 -127.2125 312.105 -127 311 C-128.41875765 311.76697796 -129.83491452 312.53876778 -131.25 313.3125 C-132.43335938 313.95638672 -132.43335938 313.95638672 -133.640625 314.61328125 C-136.02861519 315.94419187 -136.02861519 315.94419187 -138.109375 317.66796875 C-140 319 -140 319 -143 319 C-142.71412972 313.13965934 -140.13415835 309.86817389 -136 306 C-129.29271336 300.38978285 -122.46831052 295.37501435 -114.73046875 291.25390625 C-114.15941406 290.84011719 -113.58835937 290.42632812 -113 290 C-113 289.01 -113 288.02 -113 287 C-118.95575456 286.58448224 -124.15162591 287.86550023 -129.9140625 289.34375 C-132.72851961 289.94226746 -135.13742028 290.12769872 -138 290 C-138.6796875 288.2421875 -138.6796875 288.2421875 -139 286 C-135.0651678 279.20347165 -127.89282487 274.44641243 -121 271 C-120.34786708 268.97536745 -120.34786708 268.97536745 -120 267 C-120.97582031 267.34933594 -121.95164062 267.69867188 -122.95703125 268.05859375 C-124.24218147 268.51824602 -125.52733806 268.97788051 -126.8125 269.4375 C-127.77639648 269.78264648 -127.77639648 269.78264648 -128.75976562 270.13476562 C-131.49928283 271.11417851 -134.23986086 272.07995362 -137 273 C-136.8299819 268.73065657 -136.24691438 267.25139121 -133.19921875 264.1484375 C-132.04119533 263.20828622 -130.87007281 262.28407878 -129.6875 261.375 C-124.00596455 257.04096861 -124.00596455 257.04096861 -119 252 C-119 250.68 -119 249.36 -119 248 C-120.65 247.67 -122.3 247.34 -124 247 C-123.53255272 241.91172145 -121.76066745 238.55253374 -118.8125 234.5 C-118.20728516 233.64462646 -118.20728516 233.64462646 -117.58984375 232.77197266 C-114.69917776 228.76163389 -111.57026723 225.39175387 -108 222 C-107.67 221.01 -107.34 220.02 -107 219 C-108.46022163 219.95545366 -109.91811468 220.91446678 -111.375 221.875 C-112.18710938 222.40867188 -112.99921875 222.94234375 -113.8359375 223.4921875 C-116.07594096 224.95865055 -116.07594096 224.95865055 -118 227 C-118.46542408 222.29306967 -116.94509421 219.57582226 -114.6875 215.5 C-109.11771777 204.94899858 -107.63060615 193.72118071 -106 182 C-104.68 181.67 -103.36 181.34 -102 181 C-99.74052257 185.52792104 -99.69848602 189.49645093 -99.75 194.4375 C-99.73839844 195.54448242 -99.73839844 195.54448242 -99.7265625 196.67382812 C-99.74253287 201.16549563 -100.31085985 204.7704467 -102 209 C-101.12988281 208.566875 -101.12988281 208.566875 -100.2421875 208.125 C-95.65550815 205.94519199 -92.19777151 204.46689523 -87 205 C-86 207.5 -86 207.5 -86 211 C-88.29438299 214.07544954 -91.10058989 216.50342389 -94 219 C-95.01900391 219.87785156 -95.01900391 219.87785156 -96.05859375 220.7734375 C-97.24615975 221.78570789 -98.44302808 222.78725296 -99.65234375 223.7734375 C-101.13979147 224.97920282 -101.13979147 224.97920282 -102 227 C-100.75283203 226.33291016 -100.75283203 226.33291016 -99.48046875 225.65234375 C-98.39378906 225.08644531 -97.30710937 224.52054688 -96.1875 223.9375 C-94.56908203 223.08478516 -94.56908203 223.08478516 -92.91796875 222.21484375 C-90 221 -90 221 -87 222 C-86.625 225.25 -86.625 225.25 -87 229 C-89.6875 231 -89.6875 231 -93 233 C-94.8789642 235.23339414 -96.39802291 237.5499174 -98 240 C-97.01773438 239.566875 -97.01773438 239.566875 -96.015625 239.125 C-89.04376978 236.2889911 -82.5324592 234.66214531 -75 236 C-72.46788717 237.43557024 -71.65689346 238.51465981 -70 241 C-70 241.66 -70 242.32 -70 243 C-70.64324219 243.13535156 -71.28648437 243.27070313 -71.94921875 243.41015625 C-79.08492705 245.11010388 -85.03173383 247.94688162 -91.34765625 251.57421875 C-94 253 -94 253 -96 253 C-95.67 253.66 -95.34 254.32 -95 255 C-93.72189453 254.75830078 -93.72189453 254.75830078 -92.41796875 254.51171875 C-89.00235501 254.00035258 -85.76407561 253.83254399 -82.3125 253.8125 C-81.19488281 253.79832031 -80.07726562 253.78414062 -78.92578125 253.76953125 C-76 254 -76 254 -73 256 C-72.8125 259.125 -72.8125 259.125 -73 262 C-81.39270257 265.45581871 -90.11663886 267.25299391 -99 269 C-99 269.66 -99 270.32 -99 271 C-98.01 270.835 -97.02 270.67 -96 270.5 C-92.32667164 269.98272203 -88.86716064 270.11642784 -85.1706543 270.33764648 C-78.5181104 270.70488618 -78.5181104 270.70488618 -72.3515625 268.46875 C-70.89345942 267.10013339 -69.48274408 265.67945441 -68.12109375 264.21484375 C-64.36239381 260.29001342 -59.62232332 257.79531805 -55 255 C-53.90816406 254.31550781 -52.81632813 253.63101563 -51.69140625 252.92578125 C-46.97953933 249.97882171 -42.31199863 247.06134988 -37.3125 244.625 C-34.01160367 243.22720732 -34.01160367 243.22720732 -32 241 C-31.35232207 238.42938689 -31.35232207 238.42938689 -31 236 C-33.64 236.66 -36.28 237.32 -39 238 C-40.16437898 233.73061041 -39.66686919 230.3346497 -39 226 C-39.33 225.67 -39.66 225.34 -40 225 C-46.17954296 225.0499357 -51.9281123 226.37723528 -57.7734375 228.28125 C-59.83519094 228.94679848 -61.8928777 229.49967872 -64 230 C-66.43468836 226.34796746 -66.69149944 223.24565787 -66 219 C-63.89516669 213.04949381 -60.48955202 210.90141666 -55.3125 207.8125 C-53.78386227 206.86275662 -52.2565522 205.91087353 -50.73046875 204.95703125 C-49.94978027 204.47314941 -49.1690918 203.98926758 -48.36474609 203.49072266 C-44.55335892 201.08804559 -40.83630193 198.55364024 -37.125 196 C-36.45380127 195.54343018 -35.78260254 195.08686035 -35.09106445 194.61645508 C-32.14593536 192.59070692 -29.47255771 190.5774766 -27 188 C-32.0435807 190.10639816 -36.93676608 192.40729126 -41.8125 194.875 C-42.50883545 195.22433594 -43.2051709 195.57367188 -43.92260742 195.93359375 C-47.00951898 197.48330413 -50.08834218 199.04570177 -53.15625 200.6328125 C-54.47109375 201.30957031 -54.47109375 201.30957031 -55.8125 202 C-56.56144531 202.391875 -57.31039062 202.78375 -58.08203125 203.1875 C-60 204 -60 204 -63 204 C-63.7904896 201.69526085 -64.12134332 200.39633563 -63.3984375 198.03515625 C-63.06070313 197.38417969 -62.72296875 196.73320312 -62.375 196.0625 C-62.05273438 195.41410156 -61.73046875 194.76570312 -61.3984375 194.09765625 C-57.43283099 188.14924648 -51.67797489 184.54008247 -45.8125 180.6875 C-44.99330078 180.13771484 -44.17410156 179.58792969 -43.33007812 179.02148438 C-37.26038432 175 -37.26038432 175 -35 175 C-34.34 172.03 -33.68 169.06 -33 166 C-38.32463905 168.47215384 -42.67069057 171.11156034 -47.140625 174.92578125 C-49 176 -49 176 -51.234375 175.66796875 C-51.81703125 175.44753906 -52.3996875 175.22710937 -53 175 C-52.32278954 165.98532968 -46.8478353 161.27554153 -40.36621094 155.55908203 C-33.15751174 149.44608841 -25.58067946 144.29126576 -17.3515625 139.65625 C-16.57554687 139.1096875 -15.79953125 138.563125 -15 138 C-15 137.01 -15 136.02 -15 135 C-21.87853803 134.50867586 -27.66710078 135.72783051 -34.23828125 137.57714844 C-38.25871002 138.68276635 -41.82918137 139.3954554 -46 139 C-46.66 138.34 -47.32 137.68 -48 137 C-47.51975817 131.13144488 -44.10416545 127.90361286 -40 124 C-31.22413737 116.95702985 -31.22413737 116.95702985 -26.73046875 115.0234375 C-24.78603292 114.13885825 -24.78603292 114.13885825 -24.3918457 111.93603516 C-24.19788208 110.97769775 -24.19788208 110.97769775 -24 110 C-25.18078125 110.42152344 -26.3615625 110.84304687 -27.578125 111.27734375 C-29.13538202 111.83082667 -30.6926756 112.3842067 -32.25 112.9375 C-33.02730469 113.21529297 -33.80460938 113.49308594 -34.60546875 113.77929688 C-35.35957031 114.04677734 -36.11367187 114.31425781 -36.890625 114.58984375 C-37.58188477 114.83597412 -38.27314453 115.08210449 -38.98535156 115.33569336 C-40.97395653 115.99141247 -42.96285203 116.51867386 -45 117 C-45.3125 114.3125 -45.3125 114.3125 -45 111 C-43.38872846 109.01276511 -41.93393509 107.63607455 -40 106 C-39.236875 105.29488281 -38.47375 104.58976562 -37.6875 103.86328125 C-33.90033166 100.37054215 -30.24439302 97.05669196 -25.875 94.3125 C-22.64659212 92.2606141 -22.64659212 92.2606141 -22.5625 88.6875 C-22.7790625 87.3571875 -22.7790625 87.3571875 -23 86 C-25.97 85.505 -25.97 85.505 -29 85 C-28.48385763 73.38679664 -20.62566238 65.03217747 -13 57 C-11.29779938 55.02592012 -9.64781269 53.01989943 -8 51 C-8.33 50.67 -8.66 50.34 -9 50 C-10.48273699 51.12029017 -11.96108886 52.24638618 -13.4375 53.375 C-14.26121094 54.00148437 -15.08492187 54.62796875 -15.93359375 55.2734375 C-18.08528092 56.83753904 -18.08528092 56.83753904 -19 59 C-19.99 58.67 -20.98 58.34 -22 58 C-21.46945548 52.86876346 -19.60869751 48.96561868 -17.1875 44.5 C-11.44111276 33.37771291 -8.66354144 22.49936205 -7.77001953 10.03955078 C-7.25735565 3.76949096 -6.86392751 0 0 0 Z M3 163 C0.91229065 165.08770935 1.31928543 169.33093985 1.02734375 172.21484375 C0.8962899 173.48044884 0.8962899 173.48044884 0.7625885 174.7716217 C0.57787658 176.57301047 0.39561829 178.37465219 0.21557617 180.17651367 C-0.05551411 182.86813793 -0.34071419 185.55799775 -0.62695312 188.24804688 C-1.50524864 196.77475452 -2.17230332 205.24023065 -2.18359375 213.81640625 C-2.18464615 214.52651352 -2.18569855 215.23662079 -2.18678284 215.96824646 C-2.14537097 220.01551186 -1.78074914 223.93982462 -1.23625183 227.94737244 C-0.8109404 231.64260713 -0.76151584 235.3463762 -0.68359375 239.0625 C-0.6626767 239.91933884 -0.64175964 240.77617767 -0.62020874 241.65898132 C-0.55426303 244.43923322 -0.49513936 247.21956419 -0.4375 250 C-0.40672867 251.42779282 -0.40672867 251.42779282 -0.37533569 252.88442993 C0.6985176 303.23205459 0.6985176 303.23205459 -1.5546875 317.43359375 C-2.40679298 324.25791216 -2.1529229 331.13546085 -2 338 C-6.87549176 336.69891569 -9.7234779 334.82914252 -13.375 331.375 C-14.68597656 330.14910156 -14.68597656 330.14910156 -16.0234375 328.8984375 C-16.67570312 328.27195312 -17.32796875 327.64546875 -18 327 C-18.495 327.99 -18.495 327.99 -19 329 C-17.98938779 331.25188856 -17.98938779 331.25188856 -16.4375 333.6875 C-15.94121094 334.51636719 -15.44492188 335.34523438 -14.93359375 336.19921875 C-13.34939288 338.49390971 -11.81247654 340.24527559 -9.90234375 342.23828125 C-6.34071636 346.33811997 -5.69761194 350.2062101 -5.125 355.5 C-5.01260986 356.41362305 -4.90021973 357.32724609 -4.78442383 358.26855469 C-3.30535944 371.56092559 -3.4533608 384.88572254 -4.70706177 398.18824768 C-6.22590989 414.39418255 -6.43193513 430.58669689 -6.60089111 446.84814453 C-6.64178229 450.60392102 -6.69247284 454.35956615 -6.7421875 458.11523438 C-6.83738228 465.41006419 -6.92225467 472.70496103 -7 480 C-14.71294324 479.0329508 -14.71294324 479.0329508 -17.625 476.25 C-18.49318359 475.42628906 -18.49318359 475.42628906 -19.37890625 474.5859375 C-19.91386719 474.06257813 -20.44882813 473.53921875 -21 473 C-21.845625 472.29875 -22.69125 471.5975 -23.5625 470.875 C-27.32649765 466.43541303 -29.5609202 461.25533688 -32 456 C-33.32779316 459.98337948 -32.26962464 462.94519669 -31.25 466.875 C-31.07984375 467.58269531 -30.9096875 468.29039062 -30.734375 469.01953125 C-29.50407891 473.87739153 -28.21454482 478.21514298 -24.16796875 481.4765625 C-23.51441406 481.85554688 -22.86085937 482.23453125 -22.1875 482.625 C-21.13369141 483.25341797 -21.13369141 483.25341797 -20.05859375 483.89453125 C-17.84644663 485.13054159 -17.84644663 485.13054159 -14.75 486.3125 C-10.86476515 488.69662138 -9.66849335 491.86802529 -8 496 C-5.36 496 -2.72 496 0 496 C-0.00169189 494.13251099 -0.00169189 494.13251099 -0.00341797 492.22729492 C0.00028203 487.56196709 0.04333761 482.8976562 0.09765625 478.23266602 C0.11570797 476.22231645 0.12340462 474.21184394 0.12011719 472.20141602 C0.09957114 451.51668484 0.09957114 451.51668484 7 442 C8.00235253 440.17923975 8.98433838 438.34698712 9.9375 436.5 C10.56978516 435.30890625 10.56978516 435.30890625 11.21484375 434.09375 C12.30291249 431.86007375 12.30291249 431.86007375 11 429 C10.27683594 429.86625 10.27683594 429.86625 9.5390625 430.75 C8.59160156 431.86375 8.59160156 431.86375 7.625 433 C6.99851563 433.7425 6.37203125 434.485 5.7265625 435.25 C5.15679687 435.8275 4.58703125 436.405 4 437 C3.34 437 2.68 437 2 437 C1.73585257 420.32936235 2.14912598 403.51235458 4.33935547 386.97167969 C5.32709991 379.32739665 5.06861147 372.10138257 4.24023438 364.46533203 C1.92735155 340.73007719 4.95170604 314.58063174 10.23046875 291.41015625 C11.07337456 288.25749332 11.07337456 288.25749332 11 286 C10.34 286 9.68 286 9 286 C8.01 287.98 7.02 289.96 6 292 C5.970271 290.98583008 5.970271 290.98583008 5.93994141 289.95117188 C5.83670567 286.46739348 5.73113819 282.98369123 5.625 279.5 C5.59431931 278.48741623 5.59431931 278.48741623 5.5630188 277.45437622 C5.24535003 267.03960346 4.8794999 256.62710966 4.48828125 246.21484375 C4.39693274 243.75781398 4.3056245 241.30078272 4.21435547 238.84375 C4.07809751 235.17844087 3.94044451 231.51321533 3.7979126 227.84814453 C3.32617071 215.71080684 2.91768415 203.58522541 2.91015625 191.4375 C2.90950668 190.53362045 2.90885712 189.62974091 2.90818787 188.69847107 C2.94112955 180.11382768 3.40142022 171.56182864 4 163 C3.67 163 3.34 163 3 163 Z M49.875 186.5625 C49.10961914 186.92384033 48.34423828 187.28518066 47.55566406 187.6574707 C41.7744503 190.46515537 36.74406466 193.62906402 32 198 C31.45730469 198.48726562 30.91460937 198.97453125 30.35546875 199.4765625 C28.79830252 200.90341168 28.79830252 200.90341168 27 203 C27 203.66 27 204.32 27 205 C29.97114488 203.95136063 32.27297886 202.81010166 34.875 201 C41.65768024 196.65908465 48.20933785 196.74641606 56 197 C57.4216319 200.3171411 58.39009109 203.44219804 59 207 C59.79664063 207.12117188 60.59328125 207.24234375 61.4140625 207.3671875 C71.93848858 209.03163445 71.93848858 209.03163445 77 211 C76.77411661 207.83763252 75.99130436 206.99241919 73.5625 204.875 C69.42457279 202.30523591 64.74814609 201.71316028 60 201 C60.33 198.69 60.66 196.38 61 194 C69.55364922 191.88777234 77.27249433 192.05717457 86 193 C85.505 191.515 85.505 191.515 85 190 C73.80650707 184.74591148 61.19942757 181.21296111 49.875 186.5625 Z M36 223 C34.14201724 225.9961769 34.14201724 225.9961769 32.6875 229.25 C32.17574219 230.32765625 31.66398438 231.4053125 31.13671875 232.515625 C30.76160156 233.33546875 30.38648438 234.1553125 30 235 C33.78572784 235 34.92229721 233.84672837 37.9375 231.625 C40.88101041 229.46731364 43.67903751 227.52563938 47 226 C45.79618552 223.50638429 44.54571278 221.31856917 43 219 C39.74388031 219 38.33212754 220.84075332 36 223 Z M70 237 C69.01 238.485 69.01 238.485 68 240 C69.09758507 240.84198307 70.20335317 241.67330671 71.3125 242.5 C71.92738281 242.9640625 72.54226563 243.428125 73.17578125 243.90625 C75.07433005 245.25711283 75.07433005 245.25711283 78 245 C77.45925627 241.21479387 75.92427254 239.40822445 73 237 C72.01 237 71.02 237 70 237 Z M57 255 C56.34 256.32 55.68 257.64 55 259 C56.41328129 259.81837442 57.83078346 260.62946219 59.25 261.4375 C60.03890625 261.88996094 60.8278125 262.34242188 61.640625 262.80859375 C63.78833468 263.89311602 65.65205061 264.53148716 68 265 C67.34 263.68 66.68 262.36 66 261 C65.34 261 64.68 261 64 261 C64 260.34 64 259.68 64 259 C60.94441577 255.97482091 60.94441577 255.97482091 57 255 Z M-47.0625 275.25 C-47.91972656 275.52328125 -48.77695313 275.7965625 -49.66015625 276.078125 C-52.21034233 276.98777572 -52.21034233 276.98777572 -55 279 C-57.2421875 278.765625 -57.2421875 278.765625 -59.875 278.25 C-67.23550843 277.35333833 -72.68513903 280.53636401 -79 284 C-79.33 283.01 -79.66 282.02 -80 281 C-83.84235498 282.13524124 -87.1258669 283.1258669 -90 286 C-90 287.32 -90 288.64 -90 290 C-89.29875 289.71125 -88.5975 289.4225 -87.875 289.125 C-86.92625 288.75375 -85.9775 288.3825 -85 288 C-84.113125 287.608125 -83.22625 287.21625 -82.3125 286.8125 C-77.70110165 285.68140229 -73.59811943 285.78916188 -69 287 C-66.22729892 289.20684371 -64.57254444 290.85491112 -63 294 C-58.73421189 294.35548234 -57.31179834 293.55259547 -54 291 C-52.22180761 290.01689061 -50.42902606 289.05985945 -48.625 288.125 C-44.25583631 285.78542105 -40.64212158 283.34681442 -37 280 C-37.19471111 278.05000871 -37.19471111 278.05000871 -38 276 C-41.35536607 273.65200117 -43.27494191 273.99319339 -47.0625 275.25 Z M59 280 C58.34 280.66 57.68 281.32 57 282 C56.86693843 283.98366695 56.86693843 283.98366695 58 286 C60.97763043 288.26325246 60.97763043 288.26325246 64 290 C65.31112074 287.17133075 65.31112074 287.17133075 64.22265625 285.17578125 C63.64837891 284.25345703 63.64837891 284.25345703 63.0625 283.3125 C62.0415625 281.6728125 62.0415625 281.6728125 61 280 C60.34 280 59.68 280 59 280 Z M-65 314 C-64.67 314.99 -64.34 315.98 -64 317 C-63.278125 316.67 -62.55625 316.34 -61.8125 316 C-58.98302573 314.99396471 -56.97104534 314.83022598 -54 315 C-53.67 313.68 -53.34 312.36 -53 311 C-57.84850431 309.20425766 -60.92119277 311.28079518 -65 314 Z M-90 318 C-91.11635105 320.70218446 -91.11635105 320.70218446 -91 323 C-87.83411946 323.32382421 -87.83411946 323.32382421 -85.5 320.875 C-83.03143657 318.03615206 -81.51387699 315.42614267 -80 312 C-83.93627188 312 -87.23509037 315.40523866 -90 318 Z M48 312 C46.36323743 313.9600281 46.36323743 313.9600281 45 316 C45.66 317.32 46.32 318.64 47 320 C48.32 319.34 49.64 318.68 51 318 C50.67 316.02 50.34 314.04 50 312 C49.34 312 48.68 312 48 312 Z M-53.5 325.3125 C-54.6653125 325.92738281 -55.830625 326.54226563 -57.03125 327.17578125 C-60.18985537 328.83140154 -60.18985537 328.83140154 -62 332 C-62.99 332 -63.98 332 -65 332 C-65.66 331.34 -66.32 330.68 -67 330 C-72.41856132 333.10810877 -76.83660322 336.31617862 -81 341 C-81 341.66 -81 342.32 -81 343 C-77.98430449 341.90338345 -75.57115788 340.7169642 -72.875 338.9375 C-69.6824132 337.02614869 -67.07296344 336.70378562 -63.375 336.5 C-59.57725198 336.28582164 -58.15695306 336.09540284 -54.8125 334.0625 C-52.7799618 332.20723426 -52.7799618 332.20723426 -53 330 C-52.443125 329.9175 -51.88625 329.835 -51.3125 329.75 C-48.30285794 328.77389987 -46.37845248 327.04811186 -44 325 C-44.495 323.515 -44.495 323.515 -45 322 C-48.20864773 322 -50.73520711 323.82215069 -53.5 325.3125 Z M38 323 C36.13225925 325.2950498 36.13225925 325.2950498 34.3125 328.1875 C33.66925781 329.15042969 33.02601563 330.11335938 32.36328125 331.10546875 C30.83285838 334.35487662 30.89188291 335.65115995 32 339 C33.48285242 338.04737966 34.96118201 337.08771595 36.4375 336.125 C37.26121094 335.59132813 38.08492187 335.05765625 38.93359375 334.5078125 C41.11038871 333.16165694 41.11038871 333.16165694 42 331 C44.0625 329.875 44.0625 329.875 46 329 C45.0479279 327.99403703 44.08812654 326.99538437 43.125 326 C42.32449219 325.1646875 42.32449219 325.1646875 41.5078125 324.3125 C40.08175012 322.78114478 40.08175012 322.78114478 38 323 Z " fill="#025432" transform="translate(245,3)"/>
<path d="M0 0 C1.9375 0.375 1.9375 0.375 4 1 C5.11769514 3.23539029 5.30098609 4.88755006 5.578125 7.3671875 C6.95766522 18.78810838 8.45276936 28.70930955 14.64453125 38.63671875 C16.18937851 41.33018443 16.26172739 42.94651382 16 46 C15.67 45.34 15.34 44.68 15 44 C14.2575 43.71125 13.515 43.4225 12.75 43.125 C9.66221961 41.86181712 7.52111915 40.16095927 5 38 C5.495 38.78375 5.99 39.5675 6.5 40.375 C8 43 8 43 8 45 C8.66 45 9.32 45 10 45 C11.54962215 46.81720396 13.01580263 48.70605872 14.4375 50.625 C15.21996094 51.66914063 16.00242187 52.71328125 16.80859375 53.7890625 C19.89745782 58.31499168 22 61.45058184 22 67 C20.35 67.33 18.7 67.66 17 68 C17.18129815 71.43793339 17.18129815 71.43793339 18 75 C19.82655241 76.11428057 19.82655241 76.11428057 22 77 C26.68756617 80.17785301 31.39967962 83.61210954 35 88 C35.3125 90.8125 35.3125 90.8125 35 93 C34.29488281 92.70351562 33.58976562 92.40703125 32.86328125 92.1015625 C29.99677739 90.9987602 27.15507468 90.16158606 24.1875 89.375 C23.21167969 89.11460937 22.23585938 88.85421875 21.23046875 88.5859375 C20.49441406 88.39257812 19.75835937 88.19921875 19 88 C20.47342491 91.74904784 22.40423763 93.21546247 25.75 95.375 C30.04575181 98.28864036 33.68563109 100.98786922 37 105 C37.375 107.875 37.375 107.875 37 110 C30.64045908 110.31276431 25.68185929 109.49066249 19.59765625 107.66796875 C16.25098392 106.80739586 13.43176732 106.77121551 10 107 C11.44857101 110.69662656 13.11330374 111.93946228 16.5625 113.8125 C21.77037423 116.78520277 26.34679058 120.23487826 31 124 C31.9075 124.680625 32.815 125.36125 33.75 126.0625 C37.97593951 129.70150346 41.48629058 133.17795988 42 139 C41.01 139.33 40.02 139.66 39 140 C36.37109375 138.56640625 36.37109375 138.56640625 33.4375 136.5625 C30.00361937 133.92091622 30.00361937 133.92091622 26 133 C27.05252013 137.70578353 28.53120861 139.8882129 32.55273438 142.58007812 C33.13345703 142.94552734 33.71417969 143.31097656 34.3125 143.6875 C35.16618164 144.25307617 35.16618164 144.25307617 36.03710938 144.83007812 C38.57278602 146.49820983 41.1402936 148.08042182 43.7734375 149.58984375 C46.87903472 151.55672199 48.26640289 153.78963497 50 157 C50.25 159.875 50.25 159.875 50 162 C46.81239794 162 45.48393531 161.45494872 42.65625 160.1015625 C41.82222656 159.70453125 40.98820312 159.3075 40.12890625 158.8984375 C38.82759766 158.26808594 38.82759766 158.26808594 37.5 157.625 C36.63246094 157.2125 35.76492188 156.8 34.87109375 156.375 C31.42256614 154.72269156 28.18797487 153.12531658 25 151 C23.68 151 22.36 151 21 151 C25.79463977 154.42130074 30.61724197 157.76733736 35.56640625 160.9609375 C36.36771973 161.48204102 37.1690332 162.00314453 37.99462891 162.54003906 C39.60455726 163.58457782 41.22003434 164.62062098 42.84130859 165.64746094 C46.91103102 168.2990128 50.05149633 170.36551118 52 175 C52.40677966 180.18644068 52.40677966 180.18644068 51 183 C48.69810713 182.43559358 46.41080714 181.83829218 44.125 181.2109375 C43.09375 180.93507813 42.0625 180.65921875 41 180.375 C39.96875 180.09398437 38.9375 179.81296875 37.875 179.5234375 C34.79643115 178.75878566 34.79643115 178.75878566 31 180 C31 182.97 31 185.94 31 189 C28.69 188.67 26.38 188.34 24 188 C24.85582585 192.18998072 25.50591085 193.66957788 29.125 196.08984375 C30.40826617 196.72304637 31.7005613 197.33818649 33 197.9375 C34.36832802 198.61750273 35.73421801 199.30243288 37.09765625 199.9921875 C38.09949951 200.49637207 38.09949951 200.49637207 39.12158203 201.01074219 C46.49220554 204.89243786 52.93586546 210.34200842 59 216 C59.56460938 216.48597656 60.12921875 216.97195313 60.7109375 217.47265625 C62.86634509 220.02648767 62.18050105 222.81114812 62 226 C56.25 224.125 56.25 224.125 54 223 C52.27034091 223.00573685 50.54068969 223.0534887 48.8125 223.125 C45.18786781 223.17231896 42.46837176 223.07422995 39.1875 221.5 C35.80754642 219.90943361 33.68172492 219.73060549 30 220 C30.11341534 222.40877257 30.11341534 222.40877257 31 225 C33.21692394 226.66457328 33.21692394 226.66457328 36 228 C37.36125 228.928125 37.36125 228.928125 38.75 229.875 C41.23390201 231.49908977 43.63407626 232.87756114 46.25 234.25 C55.81405577 239.57232446 63.00263457 245.53535228 67 256 C67 257.32 67 258.64 67 260 C62.63639296 257.94169479 58.697445 255.27636544 54.65625 252.65625 C50.34667473 249.96910307 47.06802427 248.69109422 42 248 C43.01304224 251.82704845 44.52412924 253.57778173 47.5625 255.9375 C50.38142832 258.18913362 50.92477355 258.72918477 51.9375 262.375 C51.958125 263.24125 51.97875 264.1075 52 265 C49 265 49 265 46.875 263.25 C43.20295961 260.37622926 39.29162546 258.75778995 35 257 C36.78005704 260.59487282 36.78005704 260.59487282 39.875 262.9375 C44.47037962 265.23518981 46.8286561 269.44117492 48.75 274 C50.80034109 278.43818688 53.8768621 280.10813551 57.96484375 282.57421875 C60.78698453 284.55134233 61.60535241 286.89373945 63 290 C64.17326945 291.22215568 65.38530215 292.40778144 66.625 293.5625 C69.43731938 296.22680257 70.87752752 297.95840809 71 302 C67.83321763 300.8564397 64.91365978 299.45181332 61.96875 297.8359375 C60.87626953 297.23652344 60.87626953 297.23652344 59.76171875 296.625 C58.25058689 295.78983214 56.7427655 294.9486469 55.23828125 294.1015625 C49.95733866 291.18545287 49.95733866 291.18545287 44 291 C44 292.32 44 293.64 44 295 C44.71027344 295.25136719 45.42054688 295.50273437 46.15234375 295.76171875 C49.2911129 297.12658819 51.79607519 298.8002049 54.5625 300.8125 C55.95662109 301.81216797 55.95662109 301.81216797 57.37890625 302.83203125 C63.69036362 308.0523872 63.69036362 308.0523872 64.390625 312.45703125 C64.34421875 313.23433594 64.2978125 314.01164062 64.25 314.8125 C64.21390625 315.60269531 64.1778125 316.39289063 64.140625 317.20703125 C64.09421875 317.79871094 64.0478125 318.39039063 64 319 C62.35 319 60.7 319 59 319 C62.39480697 322.97264645 65.80314312 326.86651444 69.5625 330.5 C73.0962774 334.0097381 76.59130991 337.60551961 79 342 C78.875 345 78.875 345 78 347 C74.25845254 346.66986346 73.07016119 346.06852953 70.3125 343.375 C68.24836384 341.49802645 67.40431302 341.00585019 64.5703125 340.96484375 C62.82066592 341.19588017 61.07417597 341.4522886 59.33203125 341.734375 C56.39526937 342.06888054 54.6118929 341.30594645 52 340 C50.68 340 49.36 340 48 340 C47.88162399 342.82933033 47.88162399 342.82933033 49 346 C51.3815301 348.12382156 54.08909109 349.58911631 56.875 351.125 C65.77242368 356.17573435 65.77242368 356.17573435 68 360 C68.5259375 360.89912109 68.5259375 360.89912109 69.0625 361.81640625 C69.371875 362.39261719 69.68125 362.96882813 70 363.5625 C71.68122434 366.88951984 71.68122434 366.88951984 73.6875 368.4375 C75.97909659 371.16559118 76 374.56867013 76 378 C75.3125 380.9375 75.3125 380.9375 74 383 C72.265625 383.8125 72.265625 383.8125 70 384 C67.30859375 382.78515625 67.30859375 382.78515625 64.4375 381.0625 C60.49094934 378.58694312 60.49094934 378.58694312 56 378 C55.49699661 380.77515806 55.49699661 380.77515806 56 384 C57.98995169 386.07582758 59.72255574 387.63262839 62 389.3125 C64.01007261 390.86306276 66.00806422 392.42601503 68 394 C68 394.33 68 394.66 68 395 C48.2 395 28.4 395 8 395 C13 390 13 390 15.25 388.9375 C16.11625 388.4734375 16.11625 388.4734375 17 388 C17.63247674 385.97571353 17.63247674 385.97571353 18 384 C8.0187837 383.46209014 0.08517902 383.54041357 -9.16796875 387.90625 C-12.30219095 389.11670823 -14.66942004 389.1973677 -18 389 C-15.97314083 386.97314083 -14.71722755 386.33277183 -12.11328125 385.265625 C-11.33919922 384.93820312 -10.56511719 384.61078125 -9.76757812 384.2734375 C-8.15303565 383.60039036 -6.5358955 382.93353525 -4.91601562 382.2734375 C-0.07055973 380.20881715 3.64398899 377.94539866 7.46044922 374.29736328 C9.7234873 372.39032485 12.16172622 371.6922619 15 371 C14.324342 367.87741142 14.324342 367.87741142 11.875 366.75 C5.677969 365.13338322 -0.4704796 367.60082831 -6.3125 369.6875 C-7.05943115 369.95369141 -7.8063623 370.21988281 -8.57592773 370.49414062 C-17.75428031 373.87694808 -25.34727712 378.97187751 -33 385 C-32.46602652 378.69911292 -31.61841897 374.61841897 -27 370 C-25.29652401 369.27929862 -23.59204702 368.56069764 -21.87890625 367.86328125 C-19.04781161 366.56250804 -16.5775644 364.73835739 -14 363 C-13.34 363 -12.68 363 -12 363 C-11.34 360.36 -10.68 357.72 -10 355 C-17.08950793 355.23991567 -22.86210099 355.85662809 -29.16015625 359.2578125 C-31 360 -31 360 -34 359 C-29.0275425 355.62389156 -24.02695786 352.29437761 -19 349 C-17.94039063 348.30132812 -16.88078125 347.60265625 -15.7890625 346.8828125 C-10.5011023 343.57960948 -6.24072201 341.69986859 -0.0625 340.6875 C4.62056418 339.83370719 4.62056418 339.83370719 7.9296875 336.6015625 C9.17277694 334.09431431 10.18232443 331.67374897 11 329 C10.28972656 329.01160156 9.57945312 329.02320313 8.84765625 329.03515625 C7.46900391 329.04869141 7.46900391 329.04869141 6.0625 329.0625 C5.14597656 329.07410156 4.22945313 329.08570313 3.28515625 329.09765625 C1 329 1 329 0 328 C-0.45459858 325.34536879 -0.70243238 322.67810862 -1 320 C-7.26486277 319.65508059 -11.63297478 320.63318164 -17.375 323.0625 C-19.90433438 324.11141635 -22.41740141 325.08102041 -25 326 C-25.66 325.67 -26.32 325.34 -27 325 C-21.36125081 319.78379274 -15.51223455 314.98168088 -9.34301758 310.41455078 C-6.66174095 308.40349232 -4.88172115 306.82258173 -3 304 C-2.74984127 300.41642759 -2.74984127 300.41642759 -3 297 C-3.33 296.67 -3.66 296.34 -4 296 C-9.74178745 296.38485494 -13.96021322 297.58261188 -19.1875 300.125 C-19.82461914 300.43195801 -20.46173828 300.73891602 -21.11816406 301.05517578 C-26.63247974 303.74132212 -32.02722497 306.64196808 -37.390625 309.6171875 C-40 311 -40 311 -43 312 C-41.39868769 307.77011841 -38.22447558 305.18631511 -34.9375 302.25 C-34.35476318 301.72140381 -33.77202637 301.19280762 -33.17163086 300.64819336 C-31.45323479 299.09257527 -29.72759311 297.54539004 -28 296 C-27.12601562 295.21238281 -26.25203125 294.42476563 -25.3515625 293.61328125 C-22.14007787 290.73609792 -18.90903649 287.90656089 -15.5625 285.1875 C-12.09155215 282.22449573 -10.91331517 280.14880394 -10.375 275.75 C-9.56560963 271.57489467 -8.22797813 270.00536177 -4.875 267.4375 C-1.90835895 265.21706928 -1.90835895 265.21706928 -0.44140625 261.96484375 C-0.43443264 258.2339647 -1.25092424 254.63836798 -2 251 C-2.85231201 251.176521 -3.70462402 251.35304199 -4.58276367 251.53491211 C-7.76030742 252.1929244 -10.93788248 252.85078519 -14.11547852 253.50854492 C-15.48788683 253.79266433 -16.86028283 254.07684323 -18.23266602 254.36108398 C-20.21106744 254.77082907 -22.18951759 255.1803389 -24.16796875 255.58984375 C-25.35672607 255.83597412 -26.5454834 256.08210449 -27.77026367 256.33569336 C-30.51178965 256.89958271 -33.25475165 257.45457143 -36 258 C-35.28457031 257.28714844 -34.56914062 256.57429688 -33.83203125 255.83984375 C-32.00252119 254.01162072 -30.19136534 252.16960836 -28.38671875 250.31640625 C-20.22362934 241.98792864 -20.22362934 241.98792864 -15.5 238.6875 C-12.08347387 236.23910653 -10.2867783 234.11769058 -9 230 C-9.05392193 226.74961511 -9.05392193 226.74961511 -10 224 C-15.17709263 221.41145369 -22.73925056 222.41108873 -28.1640625 223.82421875 C-31.59968031 225.06974596 -34.89431746 226.35799078 -38.05859375 228.1953125 C-40.54271458 229.2249481 -41.53170239 229.01550039 -44 228 C-46.502523 226.16379918 -48.69207516 224.08600899 -51 222 C-49.02 219.69 -47.04 217.38 -45 215 C-44.01 215.99 -43.02 216.98 -42 218 C-41.01 217.67 -40.02 217.34 -39 217 C-39.33 214.69 -39.66 212.38 -40 210 C-38.9171875 209.45472656 -37.834375 208.90945313 -36.71875 208.34765625 C-28.9930823 204.73512268 -28.9930823 204.73512268 -24.00390625 198.3984375 C-23.9835297 195.66221197 -23.9835297 195.66221197 -25 192 C-29.95 192 -34.9 192 -40 192 C-38.95475221 187.81900884 -38.5894258 187.27154064 -35.4375 184.75 C-34.47650391 183.96882813 -34.47650391 183.96882813 -33.49609375 183.171875 C-33.00238281 182.78515625 -32.50867188 182.3984375 -32 182 C-31.21625 182.804375 -30.4325 183.60875 -29.625 184.4375 C-27.28017144 186.98690417 -27.28017144 186.98690417 -25 188 C-26.1094072 184.51329166 -27.26337666 181.22515763 -29 178 C-25.86975746 175.47172718 -22.58915997 173.79457998 -19 172 C-18.34 171.34 -17.68 170.68 -17 170 C-17 168.68 -17 167.36 -17 166 C-21.84073539 165.72086807 -25.31831378 166.59787036 -29.8125 168.375 C-30.95332031 168.81585938 -32.09414063 169.25671875 -33.26953125 169.7109375 C-36.11195179 170.70898841 -36.11195179 170.70898841 -37 173 C-38.32 172.67 -39.64 172.34 -41 172 C-40.88366554 167.14568036 -40.64609996 163.89736105 -37.75 159.875 C-35 158 -35 158 -32.5625 157.9375 C-29.40994008 159.24465899 -26.8046097 161.06793554 -24 163 C-23.34 163 -22.68 163 -22 163 C-22.495 162.54625 -22.99 162.0925 -23.5 161.625 C-25 160 -25 160 -25 158 C-25.598125 157.731875 -26.19625 157.46375 -26.8125 157.1875 C-29.08418246 155.95430095 -30.4145608 155.03579584 -32 153 C-32.27015327 149.37749022 -31.53490314 146.27863665 -30 143 C-27.22697764 140.7210798 -24.33165961 139.30250067 -21 138 C-20.29423828 138.52400391 -20.29423828 138.52400391 -19.57421875 139.05859375 C-18.95160156 139.51363281 -18.32898438 139.96867188 -17.6875 140.4375 C-16.76517578 141.11619141 -16.76517578 141.11619141 -15.82421875 141.80859375 C-13.90322899 143.17336308 -13.90322899 143.17336308 -11 144 C-12.96318174 140.46627288 -15.04070881 137.75520215 -18 135 C-17.21625 134.54625 -16.4325 134.0925 -15.625 133.625 C-12.96301969 132.11571258 -12.96301969 132.11571258 -11 130 C-10.83318891 126.91652174 -10.83318891 126.91652174 -11 124 C-11.93066284 124.06900513 -11.93066284 124.06900513 -12.88012695 124.1394043 C-15.69003515 124.33851508 -18.5009442 124.51326791 -21.3125 124.6875 C-22.28896484 124.76033203 -23.26542969 124.83316406 -24.27148438 124.90820312 C-25.20927734 124.96298828 -26.14707031 125.01777344 -27.11328125 125.07421875 C-27.97735596 125.13182373 -28.84143066 125.18942871 -29.73168945 125.2487793 C-32.52425413 124.94250189 -33.1809567 124.04520372 -35 122 C-38.0417096 122.28516028 -39.39045802 123.26030535 -42 125 C-46 120.25 -46 120.25 -46 118 C-46.66 117.67 -47.32 117.34 -48 117 C-47.071875 116.566875 -46.14375 116.13375 -45.1875 115.6875 C-42.10988255 114.27197763 -42.10988255 114.27197763 -40.5625 112.5 C-39 111 -39 111 -35.375 109.75 C-34.26125 109.1725 -33.1475 108.595 -32 108 C-30.9384058 104.41136476 -30.9384058 104.41136476 -31 101 C-30.67 101 -30.34 101 -30 101 C-30 102.65 -30 104.3 -30 106 C-28.700625 105.9175 -27.40125 105.835 -26.0625 105.75 C-20.69075359 105.71589367 -16.6824545 107.52040234 -12 110 C-13.7713641 106.15677253 -15.07072403 104.80091815 -19 103 C-21.62049354 102.38149842 -24.23574894 101.87740329 -26.890625 101.4296875 C-29 101 -29 101 -30 100 C-29.8125 96.5625 -29.8125 96.5625 -29 93 C-22.99698441 88.93038808 -14.59493273 89.70194055 -7.8125 90.9375 C-6.20515552 91.27695317 -4.59957283 91.62563189 -3 92 C-5.70892757 88.32882789 -9.60170188 87.86517357 -13.8125 86.9375 C-15.21536676 86.61555178 -16.61772169 86.29136441 -18.01953125 85.96484375 C-18.69064941 85.80870605 -19.36176758 85.65256836 -20.05322266 85.49169922 C-22.75460086 84.80940982 -25.37417834 83.92748803 -28 83 C-26.515 82.505 -26.515 82.505 -25 82 C-25 79.36 -25 76.72 -25 74 C-22.93757383 73.97282308 -20.87504297 73.9535242 -18.8125 73.9375 C-17.66394531 73.92589844 -16.51539063 73.91429687 -15.33203125 73.90234375 C-12.40699414 73.98807168 -9.83683709 74.32150977 -7 75 C-6.67 74.34 -6.34 73.68 -6 73 C-6.70640625 72.731875 -7.4128125 72.46375 -8.140625 72.1875 C-11.11693515 70.95143677 -13.90204288 69.50685562 -16.75 68 C-21.84744518 65.4134251 -26.37665725 63.93722379 -32 63 C-31.41112565 60.01804051 -31.04815531 59.05098798 -28.875 56.75 C-25.31713187 54.58434114 -22.99115405 54.28256742 -19 55 C-8.29667519 57.8516624 -8.29667519 57.8516624 -4 60 C-7.29072657 55.2391894 -9.91828477 51.90383727 -15 49 C-15.9375 47.125 -15.9375 47.125 -16 45 C-15.36480314 43.3210875 -14.70084833 41.65258399 -14 40 C-12.98679687 40.52400391 -12.98679687 40.52400391 -11.953125 41.05859375 C-11.06109375 41.51363281 -10.1690625 41.96867187 -9.25 42.4375 C-8.36828125 42.88996094 -7.4865625 43.34242188 -6.578125 43.80859375 C-4.35801434 44.83455398 -2.38555381 45.51508603 0 46 C-1.14518248 44.85481752 -2.29068969 43.70995858 -3.4375 42.56640625 C-4.54680866 41.45432432 -5.65040381 40.33653005 -6.75 39.21484375 C-10.35944508 35.51923229 -10.35944508 35.51923229 -14.4375 32.375 C-16 31 -16 31 -16.375 28.4375 C-16 26 -16 26 -14 24 C-11.9765625 24.20703125 -11.9765625 24.20703125 -9.625 24.8125 C-8.46871094 25.10060547 -8.46871094 25.10060547 -7.2890625 25.39453125 C-6.53367187 25.59433594 -5.77828125 25.79414063 -5 26 C-3.66697094 26.33454808 -2.33368329 26.66806962 -1 27 C-1.0407666 26.39526855 -1.0815332 25.79053711 -1.12353516 25.16748047 C-1.30290222 22.40395778 -1.46409407 19.63965652 -1.625 16.875 C-1.68945312 15.92367187 -1.75390625 14.97234375 -1.8203125 13.9921875 C-2.10594477 8.85080672 -2.12666217 4.82151653 0 0 Z " fill="#50816B" transform="translate(334,104)"/>
<path d="M0 0 C45.54 0 91.08 0 138 0 C138 4.29 138 8.58 138 13 C96.42 13 54.84 13 12 13 C12 152.26 12 291.52 12 435 C126.51 435 241.02 435 359 435 C359 295.74 359 156.48 359 13 C320.06 13 281.12 13 241 13 C241 8.71 241 4.42 241 0 C257.93262254 -0.02311861 274.86523881 -0.04097903 291.7978735 -0.05181217 C299.65944391 -0.05697519 307.52100435 -0.06401801 315.38256836 -0.07543945 C322.23225475 -0.0853861 329.08193392 -0.09185338 335.93162733 -0.09408849 C339.56069396 -0.09539563 343.18973994 -0.09848169 346.81879997 -0.10573006 C350.86350304 -0.11374356 354.90816989 -0.11399115 358.95288086 -0.11352539 C360.16488159 -0.11712067 361.37688232 -0.12071594 362.62561035 -0.12442017 C364.26843239 -0.12235817 364.26843239 -0.12235817 365.94444275 -0.12025452 C366.90218566 -0.12117631 367.85992857 -0.1220981 368.84669399 -0.12304783 C371 0 371 0 372 1 C372.09874478 3.37751647 372.13179101 5.72597367 372.12304783 8.10401249 C372.12420167 8.85986937 372.12535552 9.61572625 372.12654433 10.39448789 C372.12921811 12.9597144 372.12468262 15.52487974 372.12025452 18.09010315 C372.12069006 19.93475212 372.12156466 21.77940103 372.12284368 23.6240496 C372.1250919 28.71830157 372.12106292 33.81253272 372.11606562 38.90678203 C372.11176596 44.3907966 372.1132072 49.8748099 372.1139679 55.35882568 C372.11449344 64.86865583 372.11134347 74.37847914 372.10573006 83.88830757 C372.09761916 97.63809514 372.09500026 111.38787938 372.09374207 125.13766908 C372.0915509 147.44326227 372.08489762 169.74885227 372.07543945 192.05444336 C372.06625975 213.7282713 372.05919073 235.40209825 372.05493164 257.07592773 C372.054661 258.43810536 372.05439029 259.80028299 372.05411953 261.16246063 C372.05203405 271.7083179 372.05008326 282.25417519 372.04816496 292.8000325 C372.03872329 344.53335834 372.01860688 396.26667507 372 448 C249.24 448 126.48 448 0 448 C0 300.16 0 152.32 0 0 Z " fill="#070707" transform="translate(59,64)"/>
<path d="M0 0 C2.25947743 4.52792104 2.30151398 8.49645093 2.25 13.4375 C2.26160156 14.54448242 2.26160156 14.54448242 2.2734375 15.67382812 C2.25746713 20.16549563 1.68914015 23.7704467 0 28 C0.58007812 27.71125 1.16015625 27.4225 1.7578125 27.125 C6.34449185 24.94519199 9.80222849 23.46689523 15 24 C16 26.5 16 26.5 16 30 C13.70561701 33.07544954 10.89941011 35.50342389 8 38 C6.98099609 38.87785156 6.98099609 38.87785156 5.94140625 39.7734375 C4.75384025 40.78570789 3.55697192 41.78725296 2.34765625 42.7734375 C0.86020853 43.97920282 0.86020853 43.97920282 0 46 C0.83144531 45.55527344 1.66289062 45.11054688 2.51953125 44.65234375 C3.60621094 44.08644531 4.69289063 43.52054688 5.8125 42.9375 C6.89144531 42.36902344 7.97039062 41.80054688 9.08203125 41.21484375 C12 40 12 40 15 41 C15.375 44.25 15.375 44.25 15 48 C12.3125 50 12.3125 50 9 52 C7.1210358 54.23339414 5.60197709 56.5499174 4 59 C4.65484375 58.71125 5.3096875 58.4225 5.984375 58.125 C12.95623022 55.2889911 19.4675408 53.66214531 27 55 C29.53211283 56.43557024 30.34310654 57.51465981 32 60 C32 60.66 32 61.32 32 62 C31.03513672 62.20302734 31.03513672 62.20302734 30.05078125 62.41015625 C22.91507295 64.11010388 16.96826617 66.94688162 10.65234375 70.57421875 C8 72 8 72 6 72 C6.33 72.66 6.66 73.32 7 74 C8.27810547 73.75830078 8.27810547 73.75830078 9.58203125 73.51171875 C12.99764499 73.00035258 16.23592439 72.83254399 19.6875 72.8125 C20.80511719 72.79832031 21.92273438 72.78414063 23.07421875 72.76953125 C26 73 26 73 29 75 C29.1875 78.125 29.1875 78.125 29 81 C20.60729743 84.45581871 11.88336114 86.25299391 3 88 C3 88.66 3 89.32 3 90 C4.134375 89.835 5.26875 89.67 6.4375 89.5 C13.06230861 88.67922725 19.43840869 88.65403255 26 90 C25.5359375 90.7734375 25.5359375 90.7734375 25.0625 91.5625 C23.70940713 94.66665423 23.38640576 97.65115007 23 101 C22.071875 101.103125 21.14375 101.20625 20.1875 101.3125 C16.88080243 102.02570928 16.12526242 102.55594822 14 105 C13.34 105 12.68 105 12 105 C12 106.32 12 107.64 12 109 C12.969375 108.360625 13.93875 107.72125 14.9375 107.0625 C20.45875652 103.92821095 25.6214214 103.61006908 31.8125 104.625 C35.44274139 106.19098648 36.9201614 107.67225824 39 111 C39 111.66 39 112.32 39 113 C40.98 113.495 40.98 113.495 43 114 C42.30003906 114.24234375 41.60007812 114.4846875 40.87890625 114.734375 C37.52907135 116.20702969 34.87360515 118.06740856 31.9375 120.25 C30.91527344 120.99765625 29.89304687 121.7453125 28.83984375 122.515625 C25.88177691 125.10342487 24.16145842 127.74463275 22 131 C19.7209161 132.68920336 17.39300768 134.01704149 14.92578125 135.41015625 C12.47037379 137.43723706 12.3085904 138.89840498 12 142 C13.65 141.01 15.3 140.02 17 139 C17 140.98 17 142.96 17 145 C20.95613188 142.85709523 24.567664 140.63430245 28.125 137.875 C30.96919691 135.68375102 33.53412636 134.08308551 37 133 C37.66 133.66 38.32 134.32 39 135 C39.5775 134.67 40.155 134.34 40.75 134 C43 133 43 133 47 133 C45.40907948 137.13639336 42.39525082 140.23213248 39 143 C38.34 143 37.68 143 37 143 C36.835 144.051875 36.67 145.10375 36.5 146.1875 C35.53977661 149.61001053 34.31101766 150.75335061 31.25 152.5 C30.19039062 153.07814453 30.19039062 153.07814453 29.109375 153.66796875 C25.70669267 155.81669963 23.41520309 158.82547169 21 162 C21.76183594 161.50628906 22.52367187 161.01257813 23.30859375 160.50390625 C29.66499528 156.55992178 34.4360657 153.87800106 42 154 C42.66 154.66 43.32 155.32 44 156 C43.54625 156.721875 43.0925 157.44375 42.625 158.1875 C40.9439085 160.84902423 40.9439085 160.84902423 40.265625 163.4375 C38.55660884 166.89773026 36.43643805 167.88959893 33.125 169.8125 C28.38911537 172.81245539 26.01997912 174.74675207 24.05859375 179.9296875 C22.63403711 182.71572079 20.6572833 184.43525332 18.375 186.5625 C14.45771454 190.26751876 12.79188112 192.68308388 12 198 C16.03944581 196.61504715 18.70033698 194.67115578 22 192 C26.55255409 189.21788361 31.07862337 187.04283558 36 185 C36.66 184.608125 37.32 184.21625 38 183.8125 C40.99077231 182.59749875 43.81426544 182.87747175 47 183 C46.68486005 186.01059227 46.087746 186.92243192 43.77734375 188.96484375 C42.84019531 189.61582031 41.90304688 190.26679688 40.9375 190.9375 C39.44863281 191.98357422 39.44863281 191.98357422 37.9296875 193.05078125 C35.50958131 194.66095857 33.07205322 196.16188312 30.5625 197.625 C26.84599173 199.85186488 25.22047981 202.327668 23 206 C22.34 206 21.68 206 21 206 C21.17402344 207.03447266 21.17402344 207.03447266 21.3515625 208.08984375 C21.79537982 212.71188411 21.97067625 215.76320146 19.01953125 219.5234375 C16.42980684 221.81932026 13.77506728 223.93294108 11 226 C6.58346595 229.5960712 2.71131299 233.29650056 -0.9609375 237.65625 C-2.55148604 239.48446671 -4.16710868 241.23010167 -5.8515625 242.96875 C-6.35010742 243.49001465 -6.84865234 244.0112793 -7.36230469 244.54833984 C-8.3508567 245.57869312 -9.34860497 246.60032206 -10.35644531 247.61181641 C-13.53096802 250.95300715 -14.80813729 253.3825042 -15 258 C-14.505 259.485 -14.505 259.485 -14 261 C-10.95705993 260.39809977 -8.92781936 259.4634908 -6.4375 257.625 C-5.85871094 257.20476562 -5.27992188 256.78453125 -4.68359375 256.3515625 C-2.94697083 255.02585742 -2.94697083 255.02585742 -1.44921875 253.3203125 C-0.97097656 252.88460937 -0.49273437 252.44890625 0 252 C4.42105263 252.42105263 4.42105263 252.42105263 6 254 C9.42730167 253.67045176 12.42450595 253.23293807 15.625 251.9375 C18.24705404 250.90247867 20.20703859 250.84040221 23 251 C23.3125 254.125 23.3125 254.125 23 258 C21.80297696 259.45583883 20.59617384 260.90791921 19.29296875 262.26953125 C17.67702869 264.43225465 17.17408415 266.39328154 16.5 269 C15.22517116 273.82249537 13.57002201 276.52151702 10 280 C9.34 280 8.68 280 8 280 C5.94923352 286.15229943 6.63986264 292.09965659 9 298 C12.64540557 298.98104297 14.36385081 299.32790274 17.78125 297.56640625 C18.6784375 296.90511719 19.575625 296.24382812 20.5 295.5625 C24.58314604 292.56467295 26.90363329 291.57280456 32 292 C32.48951049 298.36363636 32.48951049 298.36363636 30.125 301.4375 C28 303 28 303 26 303 C26 303.66 26 304.32 26 305 C20.55967345 310.78919805 14.79897312 315.39084224 6.68473339 316.06617165 C2.74372739 316.18831746 -1.17356857 316.10488953 -5.11328125 315.9765625 C-6.82101763 315.95786449 -8.52880839 315.94365202 -10.23661804 315.9336853 C-14.68827705 315.89586611 -19.13656791 315.79797437 -23.58691406 315.68664551 C-28.14536997 315.58354535 -32.70438113 315.53850744 -37.26367188 315.48828125 C-46.17724503 315.38167883 -55.08834033 315.21147108 -64 315 C-63.67 311.7 -63.34 308.4 -63 305 C-62.01 304.67 -61.02 304.34 -60 304 C-59.72027344 303.23042969 -59.44054687 302.46085937 -59.15234375 301.66796875 C-57.63874073 298.16359295 -55.81695441 297.23578315 -52.5625 295.3125 C-51.59441406 294.73113281 -50.62632813 294.14976562 -49.62890625 293.55078125 C-48.76136719 293.03902344 -47.89382812 292.52726562 -47 292 C-43.87525373 290.36526484 -43.87525373 290.36526484 -43.3125 287.875 C-43.209375 287.25625 -43.10625 286.6375 -43 286 C-52.12801293 288.67545207 -61.06862335 292.71241557 -69 298 C-69.33 297.34 -69.66 296.68 -70 296 C-68.09078448 292.06926216 -65.33903528 289.00133316 -62.46484375 285.76171875 C-60.80813285 283.86040775 -60.80813285 283.86040775 -59.125 280.875 C-57.03342993 278.04522873 -55.97499431 277.29575338 -53 275.6875 C-48.72309853 273.24808213 -47.56414954 270.58130861 -45.85546875 266.08203125 C-44.27016398 262.22373242 -41.78803685 260.44774821 -38.25 258.4375 C-37.5075 257.963125 -36.765 257.48875 -36 257 C-36 256.01 -36 255.02 -36 254 C-37.60781893 254.7631861 -39.21113138 255.53587058 -40.8125 256.3125 C-42.15248047 256.95638672 -42.15248047 256.95638672 -43.51953125 257.61328125 C-45.80285976 258.88978774 -47.19764854 260.1543488 -49 262 C-49.66 262 -50.32 262 -51 262 C-50.87834379 255.91718946 -50.87834379 255.91718946 -48.41015625 253.33984375 C-47.16498417 252.34421536 -45.89304509 251.38091526 -44.59375 250.45703125 C-42.69218523 248.71859091 -42.3865313 247.50708498 -42 245 C-50.08517194 244.5185712 -56.32679444 250.0156311 -62.37109375 254.86328125 C-64 256 -64 256 -66 256 C-64.9477685 247.58214803 -60.78441551 242.19248897 -54.41796875 236.875 C-48.07387486 231.95550878 -41.39353965 228.01602918 -34.28515625 224.296875 C-31.89967336 223.07698181 -31.89967336 223.07698181 -30 221 C-30.32041397 218.39719432 -30.32041397 218.39719432 -31 216 C-31.65226562 216.20496094 -32.30453125 216.40992188 -32.9765625 216.62109375 C-38.37491586 218.28518793 -43.54551586 219.67305775 -49.1875 220.20703125 C-53.46426697 220.62204647 -57.07387964 221.10026434 -61 223 C-61.49081007 216.74217155 -61.49081007 216.74217155 -59.390625 213.56640625 C-56.68330025 210.6600135 -53.74718398 208.37771161 -50.5 206.125 C-49.88705078 205.69445312 -49.27410156 205.26390625 -48.64257812 204.8203125 C-34.6375289 195.10783254 -34.6375289 195.10783254 -27.7421875 193.0078125 C-26.38480469 192.50894531 -26.38480469 192.50894531 -25 192 C-23.54839062 188.98220128 -23.54839062 188.98220128 -23 186 C-25.31 186.33 -27.62 186.66 -30 187 C-31.16148326 183.51555023 -30.61892003 181.55879018 -30 178 C-30.33 177.67 -30.66 177.34 -31 177 C-37.69319802 177.42496495 -43.64857872 178.89169941 -50 181 C-51.53214888 177.93570224 -51.22938548 175.3834358 -51 172 C-48.77768895 166.80063075 -44.99750861 164.79127826 -40.3125 162.0625 C-38.86555252 161.19151247 -37.42021975 160.31783652 -35.9765625 159.44140625 C-35.28723633 159.02391113 -34.59791016 158.60641602 -33.88769531 158.17626953 C-30.94641892 156.34348763 -28.20110664 154.2978963 -25.48046875 152.15625 C-24.0406916 151.03178025 -22.52003326 150.0133555 -21 149 C-25.41172531 149.62195376 -28.81096445 151.26857822 -32.75 153.3125 C-38.09796182 156.05690443 -43.47949887 158.62047365 -49 161 C-49.56621496 156.35703734 -48.69553675 153.51002175 -45.8203125 149.796875 C-41.59970595 145.63061102 -36.19811707 142.75074788 -31.0234375 139.91796875 C-27.69024655 137.98865872 -26.99152182 136.9768777 -25.625 133.25 C-25.41875 132.1775 -25.2125 131.105 -25 130 C-26.41875765 130.76697796 -27.83491452 131.53876778 -29.25 132.3125 C-30.43335937 132.95638672 -30.43335937 132.95638672 -31.640625 133.61328125 C-34.02861519 134.94419187 -34.02861519 134.94419187 -36.109375 136.66796875 C-38 138 -38 138 -41 138 C-40.71412972 132.13965934 -38.13415835 128.86817389 -34 125 C-27.29271336 119.38978285 -20.46831052 114.37501435 -12.73046875 110.25390625 C-11.87388672 109.63322266 -11.87388672 109.63322266 -11 109 C-11 108.01 -11 107.02 -11 106 C-16.95575456 105.58448224 -22.15162591 106.86550023 -27.9140625 108.34375 C-30.72851961 108.94226746 -33.13742028 109.12769872 -36 109 C-36.6796875 107.2421875 -36.6796875 107.2421875 -37 105 C-33.0651678 98.20347165 -25.89282487 93.44641243 -19 90 C-18.34786708 87.97536745 -18.34786708 87.97536745 -18 86 C-18.97582031 86.34933594 -19.95164063 86.69867188 -20.95703125 87.05859375 C-22.24218147 87.51824602 -23.52733806 87.97788051 -24.8125 88.4375 C-25.45509766 88.66759766 -26.09769531 88.89769531 -26.75976562 89.13476562 C-29.49928283 90.11417851 -32.23986086 91.07995362 -35 92 C-34.8299819 87.73065657 -34.24691438 86.25139121 -31.19921875 83.1484375 C-30.04119533 82.20828622 -28.87007281 81.28407878 -27.6875 80.375 C-22.00596455 76.04096861 -22.00596455 76.04096861 -17 71 C-17 69.68 -17 68.36 -17 67 C-18.65 66.67 -20.3 66.34 -22 66 C-21.53255272 60.91172145 -19.76066745 57.55253374 -16.8125 53.5 C-16.40902344 52.92975098 -16.00554687 52.35950195 -15.58984375 51.77197266 C-12.69917776 47.76163389 -9.57026723 44.39175387 -6 41 C-5.67 40.01 -5.34 39.02 -5 38 C-6.46022163 38.95545366 -7.91811468 39.91446678 -9.375 40.875 C-10.18710938 41.40867188 -10.99921875 41.94234375 -11.8359375 42.4921875 C-14.07594096 43.95865055 -14.07594096 43.95865055 -16 46 C-16.46542408 41.29306967 -14.94509421 38.57582226 -12.6875 34.5 C-7.48870261 24.65176602 -5.90648718 14.46498361 -4.52734375 3.484375 C-4.35332031 2.66453125 -4.17929688 1.8446875 -4 1 C-2 0 -2 0 0 0 Z " fill="#50816B" transform="translate(143,184)"/>
<path d="M0 0 C0.66 0.33 1.32 0.66 2 1 C1.28972656 1.69867188 0.57945312 2.39734375 -0.15234375 3.1171875 C-1.07144531 4.02726562 -1.99054688 4.93734375 -2.9375 5.875 C-3.85402344 6.77992188 -4.77054687 7.68484375 -5.71484375 8.6171875 C-8.01187627 10.77682255 -8.01187627 10.77682255 -9 13 C-8.34 13.33 -7.68 13.66 -7 14 C-8.62170379 15.00533667 -10.24747237 16.00411907 -11.875 17 C-12.77992188 17.556875 -13.68484375 18.11375 -14.6171875 18.6875 C-17 20 -17 20 -19 20 C-17.37324669 15.6056534 -14.03142158 13.03126502 -10.625 10 C-9.47069479 8.95906405 -8.31703421 7.91741278 -7.1640625 6.875 C-6.62040039 6.38515625 -6.07673828 5.8953125 -5.51660156 5.390625 C-3.61888913 3.65054612 -1.79812765 1.84241651 0 0 Z " fill="#467D65" transform="translate(310,396)"/>
<path d="M0 0 C-1 3 -1 3 -3.29296875 4.16796875 C-12.89897789 7.55146185 -12.89897789 7.55146185 -18 7 C-15.45307479 4.45307479 -12.82197965 3.34231152 -9.5625 1.8125 C-8.40878906 1.26207031 -7.25507813 0.71164062 -6.06640625 0.14453125 C-3 -1 -3 -1 0 0 Z " fill="#457D64" transform="translate(334,486)"/>
<path d="M0 0 C0.66 0.33 1.32 0.66 2 1 C0.91663521 4.49084212 -0.1047123 5.05521194 -3.4375 6.8125 C-7 8 -7 8 -10 7 C-6.7 4.69 -3.4 2.38 0 0 Z " fill="#3F7B61" transform="translate(310,456)"/>
<path d="M0 0 C0.8353125 0.556875 0.8353125 0.556875 1.6875 1.125 C-2.14239106 2.92730168 -5.09371808 3.32122241 -9.3125 3.125 C-6.49583292 0.30833292 -3.93207852 -1.48781349 0 0 Z " fill="#347559" transform="translate(325.3125,489.875)"/>
<path d="M0 0 C0.33 1.32 0.66 2.64 1 4 C-2.75 7 -2.75 7 -5 7 C-3.70700306 4.11562221 -2.34058637 2.12780579 0 0 Z " fill="#3A775D" transform="translate(296,409)"/>
</svg>
